<?xml version="1.0" encoding="UTF-8"?>
<svg width="116px" height="18px" viewBox="0 0 116 18" version="1.1" xmlns="http://www.w3.org/2000/svg" xmlns:xlink="http://www.w3.org/1999/xlink">
    <!-- Generator: Sketch 52.6 (67491) - http://www.bohemiancoding.com/sketch -->
    <title>TeamMeet</title>
    <desc>Created with Sketch.</desc>
    <g id="Symbols" stroke="none" stroke-width="1" fill="none" fill-rule="evenodd">
        <g id="text" transform="translate(-70.000000, -3.000000)" fill="#2929CC">
            <g transform="translate(0.000000, 3.000000)" id="TeamMeet">
                <path d="M85.0935,2.625 L79.1135,2.625 L79.1135,17 L76.1005,17 L76.1005,2.625 L70.1435,2.625 L70.1435,0.049 L85.0935,0.049 L85.0935,2.625 Z M86.4275,12.722 C86.7495016,13.3660032 87.2631631,13.8413318 87.9685,14.148 C88.6738369,14.4546682 89.4634956,14.608 90.3375,14.608 C91.1195039,14.608 92.0356614,14.3971688 93.086,13.9755 C94.1363386,13.5538312 95.3591597,12.8140053 96.7545,11.756 L96.7545,14.976 C95.819162,15.7580039 94.8148387,16.3636645 93.7415,16.793 C92.6681613,17.2223355 91.5028396,17.437 90.2455,17.437 C89.2334949,17.437 88.2905044,17.2798349 87.4165,16.9655 C86.5424956,16.6511651 85.7873365,16.2103362 85.151,15.643 C84.5146635,15.0756638 84.0125018,14.389504 83.6445,13.5845 C83.2764982,12.779496 83.0925,11.8863382 83.0925,10.905 C83.0925,9.93899517 83.2726649,9.05733732 83.633,8.26 C83.9933351,7.46266268 84.4916635,6.77650287 85.128,6.2015 C85.7643365,5.62649712 86.5194956,5.1818349 87.3935,4.8675 C88.2675044,4.55316509 89.2181615,4.396 90.2455,4.396 C91.2881719,4.396 92.2196626,4.5454985 93.04,4.8445 C93.8603374,5.14350149 94.5541638,5.56133065 95.1215,6.098 C95.6888362,6.63466935 96.1258318,7.27099632 96.4325,8.007 C96.7391682,8.74300368 96.8925,9.54799563 96.8925,10.422 L86.4275,12.722 Z M90.3375,7.225 C89.8314975,7.225 89.3485023,7.29016601 88.8885,7.4205 C88.4284977,7.55083398 88.0145018,7.73866544 87.6465,7.984 C87.2784982,8.22933456 86.964168,8.52833157 86.7035,8.881 C86.442832,9.23366843 86.2588339,9.63233111 86.1515,10.077 L93.5115,8.467 C93.2661654,8.14499839 92.8790026,7.85750126 92.35,7.6045 C91.8209974,7.35149873 91.1501707,7.225 90.3375,7.225 Z M110.7845,14.769 C109.910496,15.5663373 108.917672,16.2103309 107.806,16.701 C106.694328,17.1916691 105.494506,17.437 104.2065,17.437 C103.317162,17.437 102.481504,17.3450009 101.6995,17.161 C100.917496,16.9769991 100.239003,16.7010018 99.664,16.333 C99.0889971,15.9649982 98.6366683,15.5011695 98.307,14.9415 C97.9773317,14.3818305 97.8125,13.7263371 97.8125,12.975 C97.8125,12.1929961 97.9734984,11.5145029 98.2955,10.9395 C98.6175016,10.3644971 99.0506639,9.89300184 99.595,9.525 C100.139336,9.15699816 100.77183,8.88483421 101.4925,8.7085 C102.21317,8.53216578 102.972163,8.444 103.7695,8.444 C104.628171,8.444 105.39483,8.50916601 106.0695,8.6395 C106.74417,8.76983398 107.326831,8.94233226 107.8175,9.157 L107.8175,8.881 C107.8175,8.43633111 107.576002,8.04916831 107.093,7.7195 C106.609998,7.38983168 105.862505,7.225 104.8505,7.225 C103.899829,7.225 102.926172,7.34766544 101.9295,7.593 C100.932828,7.83833456 99.8671723,8.29832996 98.7325,8.973 L98.7325,5.96 C99.6065044,5.45399747 100.526495,5.06683467 101.4925,4.7985 C102.458505,4.53016532 103.577827,4.396 104.8505,4.396 C105.739838,4.396 106.548663,4.51099885 107.277,4.741 C108.005337,4.97100115 108.630164,5.3159977 109.1515,5.776 C109.672836,6.2360023 110.075332,6.80716325 110.359,7.4895 C110.642668,8.17183674 110.7845,8.95766222 110.7845,9.847 L110.7845,14.769 Z M100.7565,12.975 C100.7565,13.2663348 100.848499,13.515499 101.0325,13.7225 C101.216501,13.929501 101.469498,14.098166 101.7915,14.2285 C102.113502,14.358834 102.481498,14.4546664 102.8955,14.516 C103.309502,14.5773336 103.746498,14.608 104.2065,14.608 C104.88117,14.608 105.52133,14.5275008 106.127,14.3665 C106.73267,14.2054992 107.296164,13.9870014 107.8175,13.711 L107.8175,12.032 C107.09683,11.7253318 106.403003,11.5030007 105.736,11.365 C105.068997,11.2269993 104.44417,11.158 103.8615,11.158 C102.956829,11.158 102.21317,11.3151651 101.6305,11.6295 C101.04783,11.9438349 100.7565,12.3923304 100.7565,12.975 Z M125.8265,8.973 C125.8265,8.39033042 125.661668,7.95333479 125.332,7.662 C125.002332,7.37066521 124.54617,7.225 123.9635,7.225 C123.564831,7.225 123.162335,7.27483283 122.756,7.3745 C122.349665,7.47416716 122.000835,7.62366567 121.7095,7.823 L121.7095,17 L118.7655,17 L118.7655,8.766 C118.7655,8.21399724 118.600668,7.81916785 118.271,7.5815 C117.941332,7.34383214 117.48517,7.225 116.9025,7.225 C116.503831,7.225 116.097502,7.27866613 115.6835,7.386 C115.269498,7.49333387 114.924501,7.63899908 114.6485,7.823 L114.6485,17 L111.7045,17 L111.7045,6.903 C112.026502,6.51966475 112.402165,6.1746682 112.8315,5.868 C113.260835,5.5613318 113.709331,5.30066774 114.177,5.086 C114.644669,4.87133226 115.116164,4.70266728 115.5915,4.58 C116.066836,4.45733272 116.503831,4.396 116.9025,4.396 C117.638504,4.396 118.29783,4.48799908 118.8805,4.672 C119.46317,4.85600092 119.961498,5.13966475 120.3755,5.523 C120.942836,5.18566498 121.548497,4.91350103 122.1925,4.7065 C122.836503,4.49949896 123.426831,4.396 123.9635,4.396 C124.68417,4.396 125.339664,4.50333226 125.93,4.718 C126.520336,4.93266774 127.026331,5.23549804 127.448,5.6265 C127.869669,6.01750195 128.195499,6.49666383 128.4255,7.064 C128.655501,7.63133617 128.7705,8.26766314 128.7705,8.973 L128.7705,17 L125.8265,17 L125.8265,8.973 Z M138.7295,10.997 L144.4795,0.049 L147.4925,0.049 L147.4925,17 L144.5945,17 L144.5945,5.753 L139.8105,15.068 L137.5795,15.068 L132.6115,5.73 L132.6115,17 L129.7135,17 L129.7135,0.049 L132.7495,0.049 L138.7295,10.997 Z M151.7475,12.722 C152.069502,13.3660032 152.583163,13.8413318 153.2885,14.148 C153.993837,14.4546682 154.783496,14.608 155.6575,14.608 C156.439504,14.608 157.355661,14.3971688 158.406,13.9755 C159.456339,13.5538312 160.67916,12.8140053 162.0745,11.756 L162.0745,14.976 C161.139162,15.7580039 160.134839,16.3636645 159.0615,16.793 C157.988161,17.2223355 156.82284,17.437 155.5655,17.437 C154.553495,17.437 153.610504,17.2798349 152.7365,16.9655 C151.862496,16.6511651 151.107337,16.2103362 150.471,15.643 C149.834663,15.0756638 149.332502,14.389504 148.9645,13.5845 C148.596498,12.779496 148.4125,11.8863382 148.4125,10.905 C148.4125,9.93899517 148.592665,9.05733732 148.953,8.26 C149.313335,7.46266268 149.811663,6.77650287 150.448,6.2015 C151.084337,5.62649712 151.839496,5.1818349 152.7135,4.8675 C153.587504,4.55316509 154.538162,4.396 155.5655,4.396 C156.608172,4.396 157.539663,4.5454985 158.36,4.8445 C159.180337,5.14350149 159.874164,5.56133065 160.4415,6.098 C161.008836,6.63466935 161.445832,7.27099632 161.7525,8.007 C162.059168,8.74300368 162.2125,9.54799563 162.2125,10.422 L151.7475,12.722 Z M155.6575,7.225 C155.151497,7.225 154.668502,7.29016601 154.2085,7.4205 C153.748498,7.55083398 153.334502,7.73866544 152.9665,7.984 C152.598498,8.22933456 152.284168,8.52833157 152.0235,8.881 C151.762832,9.23366843 151.578834,9.63233111 151.4715,10.077 L158.8315,8.467 C158.586165,8.14499839 158.199003,7.85750126 157.67,7.6045 C157.140997,7.35149873 156.470171,7.225 155.6575,7.225 Z M166.4675,12.722 C166.789502,13.3660032 167.303163,13.8413318 168.0085,14.148 C168.713837,14.4546682 169.503496,14.608 170.3775,14.608 C171.159504,14.608 172.075661,14.3971688 173.126,13.9755 C174.176339,13.5538312 175.39916,12.8140053 176.7945,11.756 L176.7945,14.976 C175.859162,15.7580039 174.854839,16.3636645 173.7815,16.793 C172.708161,17.2223355 171.54284,17.437 170.2855,17.437 C169.273495,17.437 168.330504,17.2798349 167.4565,16.9655 C166.582496,16.6511651 165.827337,16.2103362 165.191,15.643 C164.554663,15.0756638 164.052502,14.389504 163.6845,13.5845 C163.316498,12.779496 163.1325,11.8863382 163.1325,10.905 C163.1325,9.93899517 163.312665,9.05733732 163.673,8.26 C164.033335,7.46266268 164.531663,6.77650287 165.168,6.2015 C165.804337,5.62649712 166.559496,5.1818349 167.4335,4.8675 C168.307504,4.55316509 169.258162,4.396 170.2855,4.396 C171.328172,4.396 172.259663,4.5454985 173.08,4.8445 C173.900337,5.14350149 174.594164,5.56133065 175.1615,6.098 C175.728836,6.63466935 176.165832,7.27099632 176.4725,8.007 C176.779168,8.74300368 176.9325,9.54799563 176.9325,10.422 L166.4675,12.722 Z M170.3775,7.225 C169.871497,7.225 169.388502,7.29016601 168.9285,7.4205 C168.468498,7.55083398 168.054502,7.73866544 167.6865,7.984 C167.318498,8.22933456 167.004168,8.52833157 166.7435,8.881 C166.482832,9.23366843 166.298834,9.63233111 166.1915,10.077 L173.5515,8.467 C173.306165,8.14499839 172.919003,7.85750126 172.39,7.6045 C171.860997,7.35149873 171.190171,7.225 170.3775,7.225 Z M177.8525,4.833 L179.4855,4.833 L179.4855,1.153 L182.4525,1.153 L182.4525,4.833 L185.6955,4.833 L185.6955,7.432 L182.4525,7.432 L182.4525,12.446 C182.4525,13.7953401 183.042827,14.47 184.2235,14.47 C184.346167,14.47 184.564665,14.4508335 184.879,14.4125 C185.193335,14.3741665 185.534498,14.3320002 185.9025,14.286 L185.9025,16.908 C185.503831,16.9540002 185.143502,16.9961665 184.8215,17.0345 C184.499498,17.0728335 184.208168,17.092 183.9475,17.092 C183.31883,17.092 182.732336,17.0115008 182.188,16.8505 C181.643664,16.6894992 181.172169,16.4288351 180.7735,16.0685 C180.374831,15.7081649 180.060501,15.2481695 179.8305,14.6885 C179.600499,14.1288305 179.4855,13.4503373 179.4855,12.653 L179.4855,7.432 L177.8525,7.432 L177.8525,4.833 Z"></path>
            </g>
        </g>
    </g>
</svg>