<?xml version="1.0" encoding="UTF-8"?>
<svg width="117px" height="18px" viewBox="0 0 117 18" version="1.1" xmlns="http://www.w3.org/2000/svg" xmlns:xlink="http://www.w3.org/1999/xlink">
    <!-- Generator: Sketch 52.6 (67491) - http://www.bohemiancoding.com/sketch -->
    <title>TeamMeet</title>
    <desc>Created with Sketch.</desc>
    <g id="Symbols" stroke="none" stroke-width="1" fill="none" fill-rule="evenodd">
        <g id="text/invert" transform="translate(-70.000000, -3.000000)" fill="#FFFFFF">
            <g id="text">
                <path d="M85.5935,5.625 L79.6135,5.625 L79.6135,20 L76.6005,20 L76.6005,5.625 L70.6435,5.625 L70.6435,3.049 L85.5935,3.049 L85.5935,5.625 Z M86.9275,15.722 C87.2495016,16.3660032 87.7631631,16.8413318 88.4685,17.148 C89.1738369,17.4546682 89.9634956,17.608 90.8375,17.608 C91.6195039,17.608 92.5356614,17.3971688 93.586,16.9755 C94.6363386,16.5538312 95.8591597,15.8140053 97.2545,14.756 L97.2545,17.976 C96.319162,18.7580039 95.3148387,19.3636645 94.2415,19.793 C93.1681613,20.2223355 92.0028396,20.437 90.7455,20.437 C89.7334949,20.437 88.7905044,20.2798349 87.9165,19.9655 C87.0424956,19.6511651 86.2873365,19.2103362 85.651,18.643 C85.0146635,18.0756638 84.5125018,17.389504 84.1445,16.5845 C83.7764982,15.779496 83.5925,14.8863382 83.5925,13.905 C83.5925,12.9389952 83.7726649,12.0573373 84.133,11.26 C84.4933351,10.4626627 84.9916635,9.77650287 85.628,9.2015 C86.2643365,8.62649713 87.0194956,8.1818349 87.8935,7.8675 C88.7675044,7.5531651 89.7181615,7.396 90.7455,7.396 C91.7881719,7.396 92.7196626,7.54549851 93.54,7.8445 C94.3603374,8.14350149 95.0541638,8.56133065 95.6215,9.098 C96.1888362,9.63466935 96.6258318,10.2709963 96.9325,11.007 C97.2391682,11.7430037 97.3925,12.5479956 97.3925,13.422 L86.9275,15.722 Z M90.8375,10.225 C90.3314975,10.225 89.8485023,10.290166 89.3885,10.4205 C88.9284977,10.550834 88.5145018,10.7386654 88.1465,10.984 C87.7784982,11.2293346 87.464168,11.5283316 87.2035,11.881 C86.942832,12.2336684 86.7588339,12.6323311 86.6515,13.077 L94.0115,11.467 C93.7661654,11.1449984 93.3790026,10.8575013 92.85,10.6045 C92.3209974,10.3514987 91.6501707,10.225 90.8375,10.225 Z M111.2845,17.769 C110.410496,18.5663373 109.417672,19.2103309 108.306,19.701 C107.194328,20.1916691 105.994506,20.437 104.7065,20.437 C103.817162,20.437 102.981504,20.3450009 102.1995,20.161 C101.417496,19.9769991 100.739003,19.7010018 100.164,19.333 C99.5889971,18.9649982 99.1366683,18.5011695 98.807,17.9415 C98.4773317,17.3818305 98.3125,16.7263371 98.3125,15.975 C98.3125,15.1929961 98.4734984,14.5145029 98.7955,13.9395 C99.1175016,13.3644971 99.5506639,12.8930018 100.095,12.525 C100.639336,12.1569982 101.27183,11.8848342 101.9925,11.7085 C102.71317,11.5321658 103.472163,11.444 104.2695,11.444 C105.128171,11.444 105.89483,11.509166 106.5695,11.6395 C107.24417,11.769834 107.826831,11.9423323 108.3175,12.157 L108.3175,11.881 C108.3175,11.4363311 108.076002,11.0491683 107.593,10.7195 C107.109998,10.3898317 106.362505,10.225 105.3505,10.225 C104.399829,10.225 103.426172,10.3476654 102.4295,10.593 C101.432828,10.8383346 100.367172,11.29833 99.2325,11.973 L99.2325,8.96 C100.106504,8.45399747 101.026495,8.06683468 101.9925,7.7985 C102.958505,7.53016532 104.077827,7.396 105.3505,7.396 C106.239838,7.396 107.048663,7.51099885 107.777,7.741 C108.505337,7.97100115 109.130164,8.3159977 109.6515,8.776 C110.172836,9.2360023 110.575332,9.80716325 110.859,10.4895 C111.142668,11.1718367 111.2845,11.9576622 111.2845,12.847 L111.2845,17.769 Z M101.2565,15.975 C101.2565,16.2663348 101.348499,16.515499 101.5325,16.7225 C101.716501,16.929501 101.969498,17.098166 102.2915,17.2285 C102.613502,17.358834 102.981498,17.4546664 103.3955,17.516 C103.809502,17.5773336 104.246498,17.608 104.7065,17.608 C105.38117,17.608 106.02133,17.5275008 106.627,17.3665 C107.23267,17.2054992 107.796164,16.9870014 108.3175,16.711 L108.3175,15.032 C107.59683,14.7253318 106.903003,14.5030007 106.236,14.365 C105.568997,14.2269993 104.94417,14.158 104.3615,14.158 C103.456829,14.158 102.71317,14.3151651 102.1305,14.6295 C101.54783,14.9438349 101.2565,15.3923304 101.2565,15.975 Z M126.3265,11.973 C126.3265,11.3903304 126.161668,10.9533348 125.832,10.662 C125.502332,10.3706652 125.04617,10.225 124.4635,10.225 C124.064831,10.225 123.662335,10.2748328 123.256,10.3745 C122.849665,10.4741672 122.500835,10.6236657 122.2095,10.823 L122.2095,20 L119.2655,20 L119.2655,11.766 C119.2655,11.2139972 119.100668,10.8191679 118.771,10.5815 C118.441332,10.3438321 117.98517,10.225 117.4025,10.225 C117.003831,10.225 116.597502,10.2786661 116.1835,10.386 C115.769498,10.4933339 115.424501,10.6389991 115.1485,10.823 L115.1485,20 L112.2045,20 L112.2045,9.903 C112.526502,9.51966475 112.902165,9.1746682 113.3315,8.868 C113.760835,8.5613318 114.209331,8.30066774 114.677,8.086 C115.144669,7.87133226 115.616164,7.70266728 116.0915,7.58 C116.566836,7.45733272 117.003831,7.396 117.4025,7.396 C118.138504,7.396 118.79783,7.48799908 119.3805,7.672 C119.96317,7.85600092 120.461498,8.13966475 120.8755,8.523 C121.442836,8.18566498 122.048497,7.91350103 122.6925,7.7065 C123.336503,7.49949897 123.926831,7.396 124.4635,7.396 C125.18417,7.396 125.839664,7.50333226 126.43,7.718 C127.020336,7.93266774 127.526331,8.23549804 127.948,8.6265 C128.369669,9.01750196 128.695499,9.49666383 128.9255,10.064 C129.155501,10.6313362 129.2705,11.2676631 129.2705,11.973 L129.2705,20 L126.3265,20 L126.3265,11.973 Z M139.2295,13.997 L144.9795,3.049 L147.9925,3.049 L147.9925,20 L145.0945,20 L145.0945,8.753 L140.3105,18.068 L138.0795,18.068 L133.1115,8.73 L133.1115,20 L130.2135,20 L130.2135,3.049 L133.2495,3.049 L139.2295,13.997 Z M152.2475,15.722 C152.569502,16.3660032 153.083163,16.8413318 153.7885,17.148 C154.493837,17.4546682 155.283496,17.608 156.1575,17.608 C156.939504,17.608 157.855661,17.3971688 158.906,16.9755 C159.956339,16.5538312 161.17916,15.8140053 162.5745,14.756 L162.5745,17.976 C161.639162,18.7580039 160.634839,19.3636645 159.5615,19.793 C158.488161,20.2223355 157.32284,20.437 156.0655,20.437 C155.053495,20.437 154.110504,20.2798349 153.2365,19.9655 C152.362496,19.6511651 151.607337,19.2103362 150.971,18.643 C150.334663,18.0756638 149.832502,17.389504 149.4645,16.5845 C149.096498,15.779496 148.9125,14.8863382 148.9125,13.905 C148.9125,12.9389952 149.092665,12.0573373 149.453,11.26 C149.813335,10.4626627 150.311663,9.77650287 150.948,9.2015 C151.584337,8.62649713 152.339496,8.1818349 153.2135,7.8675 C154.087504,7.5531651 155.038162,7.396 156.0655,7.396 C157.108172,7.396 158.039663,7.54549851 158.86,7.8445 C159.680337,8.14350149 160.374164,8.56133065 160.9415,9.098 C161.508836,9.63466935 161.945832,10.2709963 162.2525,11.007 C162.559168,11.7430037 162.7125,12.5479956 162.7125,13.422 L152.2475,15.722 Z M156.1575,10.225 C155.651497,10.225 155.168502,10.290166 154.7085,10.4205 C154.248498,10.550834 153.834502,10.7386654 153.4665,10.984 C153.098498,11.2293346 152.784168,11.5283316 152.5235,11.881 C152.262832,12.2336684 152.078834,12.6323311 151.9715,13.077 L159.3315,11.467 C159.086165,11.1449984 158.699003,10.8575013 158.17,10.6045 C157.640997,10.3514987 156.970171,10.225 156.1575,10.225 Z M166.9675,15.722 C167.289502,16.3660032 167.803163,16.8413318 168.5085,17.148 C169.213837,17.4546682 170.003496,17.608 170.8775,17.608 C171.659504,17.608 172.575661,17.3971688 173.626,16.9755 C174.676339,16.5538312 175.89916,15.8140053 177.2945,14.756 L177.2945,17.976 C176.359162,18.7580039 175.354839,19.3636645 174.2815,19.793 C173.208161,20.2223355 172.04284,20.437 170.7855,20.437 C169.773495,20.437 168.830504,20.2798349 167.9565,19.9655 C167.082496,19.6511651 166.327337,19.2103362 165.691,18.643 C165.054663,18.0756638 164.552502,17.389504 164.1845,16.5845 C163.816498,15.779496 163.6325,14.8863382 163.6325,13.905 C163.6325,12.9389952 163.812665,12.0573373 164.173,11.26 C164.533335,10.4626627 165.031663,9.77650287 165.668,9.2015 C166.304337,8.62649713 167.059496,8.1818349 167.9335,7.8675 C168.807504,7.5531651 169.758162,7.396 170.7855,7.396 C171.828172,7.396 172.759663,7.54549851 173.58,7.8445 C174.400337,8.14350149 175.094164,8.56133065 175.6615,9.098 C176.228836,9.63466935 176.665832,10.2709963 176.9725,11.007 C177.279168,11.7430037 177.4325,12.5479956 177.4325,13.422 L166.9675,15.722 Z M170.8775,10.225 C170.371497,10.225 169.888502,10.290166 169.4285,10.4205 C168.968498,10.550834 168.554502,10.7386654 168.1865,10.984 C167.818498,11.2293346 167.504168,11.5283316 167.2435,11.881 C166.982832,12.2336684 166.798834,12.6323311 166.6915,13.077 L174.0515,11.467 C173.806165,11.1449984 173.419003,10.8575013 172.89,10.6045 C172.360997,10.3514987 171.690171,10.225 170.8775,10.225 Z M178.3525,7.833 L179.9855,7.833 L179.9855,4.153 L182.9525,4.153 L182.9525,7.833 L186.1955,7.833 L186.1955,10.432 L182.9525,10.432 L182.9525,15.446 C182.9525,16.7953401 183.542827,17.47 184.7235,17.47 C184.846167,17.47 185.064665,17.4508335 185.379,17.4125 C185.693335,17.3741665 186.034498,17.3320002 186.4025,17.286 L186.4025,19.908 C186.003831,19.9540002 185.643502,19.9961665 185.3215,20.0345 C184.999498,20.0728335 184.708168,20.092 184.4475,20.092 C183.81883,20.092 183.232336,20.0115008 182.688,19.8505 C182.143664,19.6894992 181.672169,19.4288351 181.2735,19.0685 C180.874831,18.7081649 180.560501,18.2481695 180.3305,17.6885 C180.100499,17.1288305 179.9855,16.4503373 179.9855,15.653 L179.9855,10.432 L178.3525,10.432 L178.3525,7.833 Z" id="TeamMeet"></path>
            </g>
        </g>
    </g>
</svg>